<svg id="Layer_1" data-name="Layer 1" xmlns="http://www.w3.org/2000/svg" xmlns:xlink="http://www.w3.org/1999/xlink" viewBox="0 0 464.91 51.95"><defs><style>.cls-1{fill:none;}.cls-2{fill:#010101;}.cls-3{fill:#4a81c2;}.cls-4{clip-path:url(#clip-path);}.cls-5{fill:url(#linear-gradient);}.cls-6{clip-path:url(#clip-path-2);}.cls-7{fill:url(#linear-gradient-2);}</style><clipPath id="clip-path" transform="translate(-75.31 -123.44)"><polyline class="cls-1" points="74.91 156.19 133.34 156.19 133.34 174.87 74.91 174.87 74.91 156.19"/></clipPath><linearGradient id="linear-gradient" x1="-4.82" y1="557.84" x2="-2.02" y2="557.84" gradientTransform="matrix(20.83, 0, 0, -20.83, 99.89, 11663.49)" gradientUnits="userSpaceOnUse"><stop offset="0.1" stop-color="#41b649" stop-opacity="0"/><stop offset="0.27" stop-color="#41b649" stop-opacity="0.21"/><stop offset="0.62" stop-color="#41b649" stop-opacity="0.63"/><stop offset="0.87" stop-color="#41b649" stop-opacity="0.9"/><stop offset="1" stop-color="#41b649"/></linearGradient><clipPath id="clip-path-2" transform="translate(-75.31 -123.44)"><polyline class="cls-1" points="74.91 123.93 133.34 123.93 133.34 142.61 74.91 142.61 74.91 123.93"/></clipPath><linearGradient id="linear-gradient-2" x1="-4.82" y1="558.83" x2="-2.02" y2="558.83" gradientTransform="matrix(20.83, 0, 0, -20.83, 99.89, 11651.99)" gradientUnits="userSpaceOnUse"><stop offset="0" stop-color="#4a81c2" stop-opacity="0"/><stop offset="0.2" stop-color="#4a81c2" stop-opacity="0.3"/><stop offset="0.39" stop-color="#4a81c2" stop-opacity="0.55"/><stop offset="0.57" stop-color="#4a81c2" stop-opacity="0.75"/><stop offset="0.74" stop-color="#4a81c2" stop-opacity="0.89"/><stop offset="0.89" stop-color="#4a81c2" stop-opacity="0.97"/><stop offset="1" stop-color="#4a81c2"/></linearGradient></defs><title>газета</title><polygon class="cls-2" points="91.43 9.51 91.43 51.35 81.22 51.35 81.22 0.6 114.15 0.6 114.15 9.51 91.43 9.51"/><path class="cls-2" d="M227.52,174.78v-4.6c-4.21,4.2-7.51,5.1-13.51,5.1-11.31,0-17.62-5.5-17.62-15.31,0-9.21,6.61-14.72,17.42-14.72h13.61v-3.7c0-6.6-3.41-9.41-11.41-9.41a14.76,14.76,0,0,0-6.81,1.3,11.18,11.18,0,0,0-4.1,3.61l-6.71-6.31c2.8-3,4.11-4.2,6.61-5.3,2.9-1.41,6.5-2,11.31-2,14.11,0,21.22,5.9,21.22,17.41v33.93Zm-.1-22.32h-12c-6,0-9.11,2.4-9.11,7.21s3.1,7.21,10,7.21c7.9,0,11.11-3,11.11-10.41Z" transform="translate(-75.31 -123.44)"/><path class="cls-2" d="M265.9,175.38c-8,0-15.31-1.8-21.32-7.3l6.11-6.51c4,3.7,8.31,5.1,13.81,5.1,5.2,0,10.71-2.5,10.71-7.2s-3.5-6.81-8.81-6.81h-7.61V145h7.51c4.91,0,8.11-2.5,8.11-6.8s-3.9-6.41-9.91-6.41a20.8,20.8,0,0,0-12.21,3.91l-5.71-6.51c5.61-4.3,12.31-5.7,19.62-5.7,9.81,0,18.22,4.8,18.22,13.71A11.85,11.85,0,0,1,277,148.26a12.27,12.27,0,0,1,8.21,11.81C285.22,169.38,276.21,175.38,265.9,175.38Z" transform="translate(-75.31 -123.44)"/><path class="cls-2" d="M303.07,152.46c.2,8.51,3.8,14.21,13.31,14.21,5.11,0,8.31-1.8,11.91-5.3l6.41,6.1c-5.71,5.61-10.61,7.91-18.72,7.91-15.21,0-23-9-23-26.22,0-15.92,8.21-25.72,21.52-25.72,13.11,0,21.42,9.5,21.42,24.42v4.6Zm11.41-20.52c-8.21,0-11.21,6.31-11.41,13.31h22.82C325.39,138.35,322.79,131.94,314.48,131.94Z" transform="translate(-75.31 -123.44)"/><polygon class="cls-2" points="293.26 9.51 293.26 51.35 283.05 51.35 283.05 9.51 266.94 9.51 266.94 0.6 308.77 0.6 308.77 9.51 293.26 9.51"/><path class="cls-2" d="M420.87,174.78v-4.6c-4.2,4.2-7.5,5.1-13.51,5.1-11.31,0-17.62-5.5-17.62-15.31,0-9.21,6.61-14.72,17.42-14.72h13.61v-3.7c0-6.6-3.4-9.41-11.41-9.41a14.72,14.72,0,0,0-6.8,1.3,11.12,11.12,0,0,0-4.11,3.61l-6.71-6.31c2.81-3,4.11-4.2,6.61-5.3,2.9-1.41,6.51-2,11.31-2,14.11,0,21.22,5.9,21.22,17.41v33.93Zm-.1-22.32h-12c-6,0-9.11,2.4-9.11,7.21s3.11,7.21,10,7.21c7.91,0,11.11-3,11.11-10.41Z" transform="translate(-75.31 -123.44)"/><rect class="cls-3" x="366.82" y="43.94" width="7.41" height="7.41"/><path class="cls-3" d="M489.33,174.78v-5.5a18.05,18.05,0,0,1-13.91,6.1c-5.31,0-9.71-1.6-12.71-4.6-3.5-3.41-5-8.11-5-13.81V125.54h7.21v30.32c0,8.71,4.6,13.12,12,13.12s12.31-4.51,12.31-13.12V125.54h7.21v49.24Z" transform="translate(-75.31 -123.44)"/><polygon class="cls-3" points="429.18 51.35 429.18 45.14 456.61 8.51 430.68 8.51 430.68 2.1 464.91 2.1 464.91 8.21 437.39 44.94 464.91 44.94 464.91 51.35 429.18 51.35"/><g class="cls-4"><polyline class="cls-5" points="58.03 32.75 0 32.75 0 51.43 58.03 51.43 58.03 32.75"/></g><g class="cls-6"><polyline class="cls-7" points="58.03 0.5 0 0.5 0 19.17 58.03 19.17 58.03 0.5"/></g></svg>