<svg id="Layer_1" data-name="Layer 1" xmlns="http://www.w3.org/2000/svg" viewBox="0 0 954.43 288.66"><defs><style>.cls-1{fill:#ec1c24;}.cls-1,.cls-2{fill-rule:evenodd;}.cls-2{fill:#231f20;}</style></defs><title>themag</title><path class="cls-1" d="M350.38,300.92c-4.46,12.83-6.69,27.6-9.75,42.37-8.09,40.42-16.45,80.83-24.25,121h35.4l6.6-31.92c10.56-41.6,34.9-83.76,47.88-83.76,11.15,0,7.8,14.77,5.57,24.25l-13.26,57.41c-6.91,33.29,6.95,39.76,33.53,35.91,9.76-1.42,23.63-5.2,38.79-11,8.22,8.29,20.37,13,36.46,13,25.92,0,46.55-15,59.09-29.54l-.83-.56c-17.28,18.95-30.11,23.69-42.93,23.69-11.66,0-18.8-5.65-22.9-13.73a37.44,37.44,0,0,1-1.94-4.64c37.87-19,74-48,69.36-81.51-1.91-13.77-9.77-22.78-32.65-23H534c-48.79.95-76,41.13-76,79.69,0,14.17,3.64,26,10.92,34.53-15.05,4.83-25.28,3.86-30.35.72-26.38-16.41,42-115.8-15.89-115.8-14.13,0-40.28,17.61-61.73,79.25q.5-2.73.92-5.43c8-38,15.11-75.75,22.22-113.95,32.33-6.13,51.29-23.14,51.29-46.83,0-10.31-6.14-20.62-21.74-20.62-15.06,0-42.93,14.49-59.1,56.85-18.67-2.78-61.6-20.62-109-20.62-51.29,0-68,26.2-68,55.47,0,30.38,16.44,35.95,26.2,35.95,12,0,18.4-8.64,18.4-17,0-8.08-6.14-16.44-19.24-16.44-9.47,0-19,4.18-22.57,11.15a47.87,47.87,0,0,1-1.4-12c0-24,16.73-34.84,43.21-34.84,14.49,0,29.54,1.95,43.2,4.18L240.28,433.88C234.15,468.72,208,459.8,208,464v.28h97.84V464c0-3.9-25.09,3.07-25.09-21.18,0-2.51,2.23-18.12,2.79-21.46l21.74-122.93c17,2.23,35.95,2.51,45.15,2.51Zm183.11,39.57c18,.34,18.11,43.83-9,77.58-6.73,8.37-16.78,15.86-27.6,22.13-2.41-9.23-2.24-19.94-1-28.91V409.9c5.29-36.76,17.54-69.34,37.57-69.41ZM417,232.63c10.31,0,16.72,7.53,16.72,18.4,0,16.45-15.05,38.19-47.94,39.58C391.64,261.06,399.16,232.63,417,232.63Z" transform="translate(-177.57 -230.41)"/><path class="cls-2" d="M645.61,339.84h29.73l.79,14c1.58-1.76,3.38-3.64,5.4-5.66a31.92,31.92,0,0,1,7.37-5.4,47.27,47.27,0,0,1,10-3.94,48.29,48.29,0,0,1,13-1.58q24.47,0,37.1,17.89,9.48-9.74,19.35-13.81t23-4.08q23.42,0,35.92,13.81t12.5,37.24v75H808.78V388.53q0-11.85-5.92-18.29t-16.19-6.45a26.6,26.6,0,0,0-11.58,2.5,27,27,0,0,0-9.08,7,31,31,0,0,0-5.79,10.4,40,40,0,0,0-2,12.76v66.85H727.19V388.53q0-11.85-5.92-18.29t-16.19-6.45a26.6,26.6,0,0,0-11.58,2.5,27.07,27.07,0,0,0-9.08,7,31,31,0,0,0-5.79,10.4,40.28,40.28,0,0,0-2,12.76v66.85h-31V339.84ZM938,451.69q-5,6.06-15.27,10.79a53.94,53.94,0,0,1-22.89,4.74,50,50,0,0,1-15.14-2.37A42.66,42.66,0,0,1,871,457.61a36.18,36.18,0,0,1-10-12.5,39.47,39.47,0,0,1-3.82-17.9,43.24,43.24,0,0,1,4-18.81,39.06,39.06,0,0,1,11-13.95,48.85,48.85,0,0,1,17.11-8.55,79,79,0,0,1,22.11-2.9q3.68,0,8.16.13t8.68.4l9.74.52v-2.89a16.85,16.85,0,0,0-7.37-14.48q-7.37-5.26-19.21-5.26-13.17,0-21.06,3.42a94.34,94.34,0,0,0-13.95,7.37l-14.21-21.06q3.69-2.62,8.42-5.39a65.33,65.33,0,0,1,11.06-5,90.46,90.46,0,0,1,14.6-3.68,113.29,113.29,0,0,1,19.35-1.45A65.79,65.79,0,0,1,937,338.92a49.18,49.18,0,0,1,16.45,9.21A40,40,0,0,1,964,362.34a43.85,43.85,0,0,1,3.69,18v82.9h-29L938,451.69Zm0-44.21-9.21-.53q-3.69-.27-7.77-.39t-7-.14q-15,0-21.06,5.92t-6.05,13.56q0,7.89,5.66,12.37t16.71,4.47A32,32,0,0,0,929,435.9a27.24,27.24,0,0,0,6.45-7.37,17.32,17.32,0,0,0,2.5-8.95v-12.1Zm74.95,75.79a51.13,51.13,0,0,0,15.93,7.24,80.19,80.19,0,0,0,20.13,2.24q12.11,0,20.27-7.37t8.15-20.53V451.43a57.46,57.46,0,0,1-13.81,8.55q-7.5,3.28-19.87,3.29a59.81,59.81,0,0,1-23.82-4.47,51.44,51.44,0,0,1-17.77-12.51,53.91,53.91,0,0,1-11.18-18.94,72.48,72.48,0,0,1-3.82-24.08,68.6,68.6,0,0,1,4.87-25.8,61.39,61.39,0,0,1,13.95-21.05,65.1,65.1,0,0,1,22-14.08,77.69,77.69,0,0,1,28.95-5.13,155,155,0,0,1,29.6,2.63,167.91,167.91,0,0,1,22,5.53v120a55.39,55.39,0,0,1-4.48,22.89,47.73,47.73,0,0,1-12.37,16.85,53.91,53.91,0,0,1-18.68,10.39,74.42,74.42,0,0,1-23.42,3.55,141.8,141.8,0,0,1-17.24-.92,99,99,0,0,1-13.42-2.5,58.67,58.67,0,0,1-10.79-3.95,54.94,54.94,0,0,1-9.08-5.52l13.94-22.9Zm64.48-116.59a45,45,0,0,0-7.63-2,82.81,82.81,0,0,0-12.37-.66,40.47,40.47,0,0,0-16.58,3.16,37.57,37.57,0,0,0-12.11,8.42,34.53,34.53,0,0,0-7.5,12.24,43.13,43.13,0,0,0-2.5,14.61q0,14.2,7.11,23.94t22.9,9.74q14.21,0,21.45-6.05t7.23-19.21Z" transform="translate(-177.57 -230.41)"/><path class="cls-2" d="M1123.29,339.21h2.65a3,3,0,0,1,1.1.18,2.26,2.26,0,0,1,.74.48,2,2,0,0,1,.41.63,1.7,1.7,0,0,1,.13.64,1.91,1.91,0,0,1-.28,1,2.24,2.24,0,0,1-.76.77l1.49,2.56h-1.92l-1.29-2.25H1125v2.25h-1.72v-6.25Zm2.6,2.6a.71.71,0,0,0,.55-.16.53.53,0,0,0,.14-.4.57.57,0,0,0-.16-.43.7.7,0,0,0-.53-.16H1125v1.15Zm-.11,6.85a6.19,6.19,0,0,0,4.41-1.82,6.29,6.29,0,0,0,1.32-2,6.37,6.37,0,0,0,0-4.9,6.15,6.15,0,0,0-3.28-3.32,6,6,0,0,0-2.43-.49,6.06,6.06,0,0,0-2.45.49,6.22,6.22,0,0,0-3.29,3.32,6.35,6.35,0,0,0,1.32,6.89,6.07,6.07,0,0,0,2,1.33,6.15,6.15,0,0,0,2.44.49Zm0-1.49a4.47,4.47,0,0,0,1.83-.37,4.52,4.52,0,0,0,1.46-1,4.83,4.83,0,0,0,1-1.51,5.4,5.4,0,0,0,0-3.77,4.83,4.83,0,0,0-1-1.51,4.39,4.39,0,0,0-1.46-1,4.66,4.66,0,0,0-3.64,0,4.29,4.29,0,0,0-1.46,1,4.69,4.69,0,0,0-1,1.51,4.88,4.88,0,0,0-.36,1.88,5.08,5.08,0,0,0,.35,1.89,4.49,4.49,0,0,0,2.43,2.51A4.44,4.44,0,0,0,1125.78,347.17Z" transform="translate(-177.57 -230.41)"/></svg>