<svg id="Слой_1" data-name="Слой 1" xmlns="http://www.w3.org/2000/svg" viewBox="0 0 715.29 102.68"><defs><style>.cls-1{fill:#bf2029;}.cls-2,.cls-3{fill:#0a1c3a;}.cls-3{fill-rule:evenodd;}</style></defs><title>logo_unb</title><path class="cls-1" d="M164.64,643.77h-101v-101h101ZM76.87,630.55h74.55V556H76.87Z" transform="translate(-63.65 -542.79)"/><polygon class="cls-1" points="63.83 65.94 63.83 65.93 63.83 65.53 63.83 65.94"/><polygon class="cls-1" points="74.41 26.04 74.4 26.04 74.4 26.04 74.41 26.04"/><rect class="cls-1" x="74.4" y="26.04" height="10.57"/><polygon class="cls-1" points="75.77 35.77 75.77 25.2 75.77 25.2 65.2 25.2 46.44 25.2 35.87 35.77 65.2 35.77 65.2 64.69 65.2 65.09 75.77 54.52 75.77 54.51 75.77 35.77 75.77 35.77"/><polygon class="cls-1" points="57.73 53.75 57.73 43.19 57.73 43.19 47.16 43.19 28.41 43.19 17.84 53.75 47.16 53.75 47.16 82.68 47.16 83.08 57.73 72.51 57.74 72.5 57.74 53.75 57.73 53.75"/><path class="cls-2" d="M673.47,600.37c-3.43-3.82-8.09-5.52-13.48-5.62a37.74,37.74,0,0,0-10,1c-2.24.49-6.29,2-7.39,3.34l3.26,6.79a51.46,51.46,0,0,1,5.3-2.13c2.4-.64,7.76-1,10.12-.39,5.44,1.5,6.84,4.86,6.29,11.38-.62-.08-3.49-1.08-4.72-1.26a37.29,37.29,0,0,0-5.67-.46c-6,0-14.13,1.91-17.23,7.39-3.39,6-2.65,14.81,1.46,19.22a16.89,16.89,0,0,0,7.59,4.71,18.69,18.69,0,0,0,15-2.25l3.62-2.49V644h9.26s0-18.39,0-22C676.83,615,677.73,605.12,673.47,600.37Zm-13.34,35.3a12.47,12.47,0,0,1-10.68-1.07c-2.46-1.62-3.74-6.61-1.79-9.53,1.85-2.76,4.87-3.72,9.24-3.71,3.23,0,8,.45,10.62,2l.07,6.84A14.86,14.86,0,0,1,660.13,635.67Z" transform="translate(-63.65 -542.79)"/><path class="cls-2" d="M624.31,601.38a15.73,15.73,0,0,0-3.78-3.82,16.82,16.82,0,0,0-12.21-2.65c-6.86,1.2-10.17,5-10.17,5l0-22.94L589,581.88l.06,62.06h9.12V639.8a23.37,23.37,0,0,0,4.54,3.16,17.2,17.2,0,0,0,18-1.39,20.92,20.92,0,0,0,6.47-8.67,34.46,34.46,0,0,0,2-13.41C629,612.43,628.09,606.56,624.31,601.38Zm-5.23,26.47c-2.49,9.21-10.37,9.95-16.45,6.18a13.76,13.76,0,0,1-4.52-4.31V611.38c0-2.33.16-2.17,1.36-3.4a13.6,13.6,0,0,1,9.85-4.56,8.93,8.93,0,0,1,6.56,2.59C620.18,610.66,620.67,622,619.08,627.85Z" transform="translate(-63.65 -542.79)"/><polygon class="cls-2" points="701.09 68.86 712.75 52.77 702.75 52.77 687.12 74.43 687.09 34.18 677.91 39.05 677.92 101.15 687.09 101.15 687.11 87.48 694.62 77.61 705.09 101.15 715.29 101.21 701.09 68.86"/><path class="cls-2" d="M276.2,595a15.26,15.26,0,0,0-5.69,1.85,17.61,17.61,0,0,0-3.72,2.87l.06-4.16h-9.56v48.38h9.56s0-23.26,0-26.17c.06-5.78,1.74-11.85,6.59-14,3.5-1.55,9-.28,11,1.93,2.3,2.44,3.12,6.33,3.15,10.63,0,3.92-.07,27.6-.07,27.6h9.55V616.09c0-5.84-.93-11.81-4.57-16.05C288.5,595.35,283,594.22,276.2,595Z" transform="translate(-63.65 -542.79)"/><path class="cls-2" d="M498.83,621.05c-6.16-5.39-15.14-6.61-19.48-10.07-3.9-3.11-2.1-7.88,4.43-8,7.5-.09,11.12,3.59,12.61,3.85l3.93-7.21c-4-2.32-6.35-3.77-11.6-4.68-8.69-1.52-20.26,1.12-20.74,11.59-.34,7.51,2.35,10.26,7.43,13.36l8.39,3.72c3.17,1.1,9.14,3.23,9.3,7.19.28,6.84-11.13,6.36-17.23,3.66-1-.43-6.42-3.88-6.42-3.88-.86,1.12-4.2,7.32-4.2,7.32,3.38,2.15,7.78,5,12.26,6,8.1,1.82,20.65,1,23.91-7.61C503.2,631.64,502.85,624.59,498.83,621.05Z" transform="translate(-63.65 -542.79)"/><path class="cls-2" d="M450,594.89c-5.66,1-8.11,4.14-8.3,4.66v-4h-9.57s.06,42.32.06,48.37h9.51l0-28.81c.14-3.92,1.68-8,4.34-9.6a11.18,11.18,0,0,1,6.42-1.7c4.18.13,5.76,1.3,5.76,1.3l2.57-8.35C458.61,594.79,453.61,594.23,450,594.89Z" transform="translate(-63.65 -542.79)"/><polygon class="cls-2" points="499.84 101.15 509.42 101.15 509.42 34.15 499.84 39.21 499.84 101.15"/><rect class="cls-2" x="246.19" y="52.77" width="9.46" height="48.38"/><path class="cls-2" d="M312.87,577.48c-8,2.64-3.83,13.73,3.39,11.57C324,586.72,320.37,575,312.87,577.48Z" transform="translate(-63.65 -542.79)"/><path class="cls-2" d="M233.91,579.62h0s0,24,0,35c0,10.44-2,20.5-14.75,20.51s-14.77-10.07-14.76-20.51c0-11.1,0-35,0-35h0l-9.91-.06v21.2c0,7.23,0,16.6.89,23.19.71,5.26,3.28,11.89,7.15,15.23.63.54,1.25,1,1.87,1.49a19.3,19.3,0,0,0,6.41,3.16,37.61,37.61,0,0,0,16.8,0,19.25,19.25,0,0,0,6.4-3.16c.63-.46,1.25-.95,1.87-1.49,3.87-3.34,6.45-10,7.15-15.23.89-6.59.9-16,.9-23.19v-21.2l-9.92.06Z" transform="translate(-63.65 -542.79)"/><path class="cls-2" d="M363.42,595.56,352,632.27h-.62c-.95-2.24-11.95-36.71-11.95-36.71h-9.64L347,643.94h9.12S372.91,597.5,373,595.56C373,595.56,363.47,595.52,363.42,595.56Z" transform="translate(-63.65 -542.79)"/><path class="cls-2" d="M546.14,600.18c-3.43-3.82-8.09-5.52-13.48-5.62a37.74,37.74,0,0,0-10,1c-2.25.49-6.29,2.05-7.39,3.35l3.25,6.78a51.89,51.89,0,0,1,5.31-2.13c2.4-.64,7.76-1,10.12-.38,5.44,1.49,6.84,4.85,6.29,11.37-.63-.08-3.49-1.08-4.72-1.25a38.63,38.63,0,0,0-5.68-.47c-6,0-14.12,1.91-17.23,7.4-3.38,6-2.65,14.81,1.47,19.21a16.8,16.8,0,0,0,7.59,4.71,18.68,18.68,0,0,0,15-2.24l3.61-2.5v4.42h9.26v-22C549.5,614.85,550.4,604.93,546.14,600.18Zm-13.35,35.3a12.41,12.41,0,0,1-10.67-1.07c-2.46-1.62-3.74-6.61-1.79-9.53,1.85-2.76,4.86-3.72,9.23-3.71,3.24,0,8,.46,10.63,2.05l.06,6.85A14.76,14.76,0,0,1,532.79,635.48Z" transform="translate(-63.65 -542.79)"/><path class="cls-2" d="M708.84,595a15.15,15.15,0,0,0-5.68,1.85,17.48,17.48,0,0,0-3.73,2.87l.06-4.16h-9.55l0,1.49,0,46.89h9.55s0-23.26,0-26.17c.07-5.78,1.74-11.85,6.6-14,3.49-1.55,8.95-.28,11,1.93,2.3,2.44,3.12,6.33,3.15,10.63,0,3.92-.06,27.6-.06,27.6h9.54V616.09c0-5.84-.93-11.81-4.57-16.05C721.14,595.35,715.69,594.22,708.84,595Z" transform="translate(-63.65 -542.79)"/><path class="cls-3" d="M411.21,615.32l-22.62,0a11.85,11.85,0,0,1,.13-1.22,16,16,0,0,1,3.17-7.72c4.6-5.42,14.25-4.29,17.65,2a13.86,13.86,0,0,1,1.67,6.91Zm9.47,7.79c1.2-3.35-.39-13.8-2.47-17.78-2.75-5.22-5.44-7.62-10.74-10-4.12-1.85-12.79-1.22-17.5,1.44-14.1,8-14.1,33.82-3.07,43.54,8.37,7.36,21.62,6.73,29.88-1.19l-5.45-6.24-4.63,2.62c-12.12,5.27-18.94-6.44-18.1-12.3Z" transform="translate(-63.65 -542.79)"/></svg>